<mxfile host="app.diagrams.net" modified="2022-05-24T14:28:26.151Z" agent="5.0 (Windows NT 10.0; Win64; x64) AppleWebKit/537.36 (KHTML, like Gecko) Chrome/101.0.0.0 Safari/537.36" etag="WL9hqAyB92BLYCfu4KMg" version="18.1.2" type="github">
  <diagram id="XjVkoh3s6qNT3mLwqElE" name="第 1 页">
    <mxGraphModel dx="1697" dy="917" grid="1" gridSize="10" guides="1" tooltips="1" connect="1" arrows="1" fold="1" page="1" pageScale="1" pageWidth="827" pageHeight="1169" math="0" shadow="0">
      <root>
        <mxCell id="0" />
        <mxCell id="1" parent="0" />
        <mxCell id="jYE5WnwlVPZ0vAVxvm49-1" value="浏览器" style="rounded=0;whiteSpace=wrap;html=1;fontFamily=Lucida Console;fillColor=#d5e8d4;strokeColor=#82b366;sketch=1;fontSize=14;" vertex="1" parent="1">
          <mxGeometry x="210" y="190" width="120" height="60" as="geometry" />
        </mxCell>
        <mxCell id="jYE5WnwlVPZ0vAVxvm49-2" value="" style="endArrow=none;html=1;rounded=0;dashed=1;fontFamily=Lucida Console;fillColor=#d5e8d4;strokeColor=#82b366;fontSize=14;" edge="1" parent="1">
          <mxGeometry width="50" height="50" relative="1" as="geometry">
            <mxPoint x="270" y="640" as="sourcePoint" />
            <mxPoint x="269.5" y="260" as="targetPoint" />
          </mxGeometry>
        </mxCell>
        <mxCell id="jYE5WnwlVPZ0vAVxvm49-3" value="服务器" style="rounded=0;whiteSpace=wrap;html=1;fontFamily=Lucida Console;fillColor=#dae8fc;strokeColor=#6c8ebf;sketch=1;fontSize=14;" vertex="1" parent="1">
          <mxGeometry x="480" y="190" width="120" height="60" as="geometry" />
        </mxCell>
        <mxCell id="jYE5WnwlVPZ0vAVxvm49-4" value="" style="endArrow=none;html=1;rounded=0;dashed=1;fontFamily=Lucida Console;fillColor=#dae8fc;strokeColor=#6c8ebf;fontSize=14;" edge="1" parent="1">
          <mxGeometry width="50" height="50" relative="1" as="geometry">
            <mxPoint x="540" y="640" as="sourcePoint" />
            <mxPoint x="539.5" y="260" as="targetPoint" />
          </mxGeometry>
        </mxCell>
        <mxCell id="jYE5WnwlVPZ0vAVxvm49-5" value="" style="endArrow=classic;html=1;rounded=0;targetPerimeterSpacing=0;startArrow=none;startFill=0;endFill=1;fontFamily=Lucida Console;fontSize=14;" edge="1" parent="1">
          <mxGeometry width="50" height="50" relative="1" as="geometry">
            <mxPoint x="270" y="320" as="sourcePoint" />
            <mxPoint x="540" y="320" as="targetPoint" />
          </mxGeometry>
        </mxCell>
        <mxCell id="jYE5WnwlVPZ0vAVxvm49-6" value="" style="endArrow=none;html=1;rounded=0;targetPerimeterSpacing=0;startArrow=classic;startFill=1;endFill=0;fontFamily=Lucida Console;fontSize=14;" edge="1" parent="1">
          <mxGeometry width="50" height="50" relative="1" as="geometry">
            <mxPoint x="270" y="420" as="sourcePoint" />
            <mxPoint x="540" y="420" as="targetPoint" />
          </mxGeometry>
        </mxCell>
        <mxCell id="jYE5WnwlVPZ0vAVxvm49-7" value="" style="endArrow=classic;html=1;rounded=0;targetPerimeterSpacing=0;startArrow=none;startFill=0;endFill=1;fontFamily=Lucida Console;fontSize=14;" edge="1" parent="1">
          <mxGeometry width="50" height="50" relative="1" as="geometry">
            <mxPoint x="270" y="520" as="sourcePoint" />
            <mxPoint x="540" y="520" as="targetPoint" />
          </mxGeometry>
        </mxCell>
        <mxCell id="jYE5WnwlVPZ0vAVxvm49-8" value="请求一：登录认证" style="text;html=1;strokeColor=none;fillColor=none;align=center;verticalAlign=middle;whiteSpace=wrap;rounded=0;fontFamily=Lucida Console;fontSize=14;" vertex="1" parent="1">
          <mxGeometry x="340" y="290" width="119" height="30" as="geometry" />
        </mxCell>
        <mxCell id="jYE5WnwlVPZ0vAVxvm49-9" value="返回cookie(sessionId)" style="text;html=1;strokeColor=none;fillColor=none;align=center;verticalAlign=middle;whiteSpace=wrap;rounded=0;fontFamily=Lucida Console;fontSize=14;" vertex="1" parent="1">
          <mxGeometry x="304" y="390" width="191" height="30" as="geometry" />
        </mxCell>
        <mxCell id="jYE5WnwlVPZ0vAVxvm49-10" value="请求二：查看订单详情+携带cookie(sessionId)" style="text;html=1;strokeColor=none;fillColor=none;align=center;verticalAlign=middle;whiteSpace=wrap;rounded=0;fontFamily=Lucida Console;fontSize=10;" vertex="1" parent="1">
          <mxGeometry x="284.5" y="490" width="230" height="30" as="geometry" />
        </mxCell>
        <mxCell id="jYE5WnwlVPZ0vAVxvm49-11" value="" style="curved=1;endArrow=classic;html=1;rounded=0;targetPerimeterSpacing=0;fontFamily=Lucida Console;fontSize=14;" edge="1" parent="1">
          <mxGeometry width="50" height="50" relative="1" as="geometry">
            <mxPoint x="540" y="340" as="sourcePoint" />
            <mxPoint x="540" y="390" as="targetPoint" />
            <Array as="points">
              <mxPoint x="590" y="330" />
              <mxPoint x="610" y="390" />
              <mxPoint x="580" y="400" />
            </Array>
          </mxGeometry>
        </mxCell>
        <mxCell id="jYE5WnwlVPZ0vAVxvm49-12" value="鉴权成功" style="text;html=1;strokeColor=none;fillColor=none;align=center;verticalAlign=middle;whiteSpace=wrap;rounded=0;fontFamily=Lucida Console;fontSize=14;" vertex="1" parent="1">
          <mxGeometry x="600" y="340" width="60" height="30" as="geometry" />
        </mxCell>
        <mxCell id="jYE5WnwlVPZ0vAVxvm49-13" value="" style="curved=1;endArrow=classic;html=1;rounded=0;targetPerimeterSpacing=0;fontFamily=Lucida Console;fontSize=14;" edge="1" parent="1">
          <mxGeometry width="50" height="50" relative="1" as="geometry">
            <mxPoint x="540" y="540" as="sourcePoint" />
            <mxPoint x="540" y="590" as="targetPoint" />
            <Array as="points">
              <mxPoint x="590" y="530" />
              <mxPoint x="610" y="590" />
              <mxPoint x="580" y="600" />
            </Array>
          </mxGeometry>
        </mxCell>
        <mxCell id="jYE5WnwlVPZ0vAVxvm49-14" value="取出sessionId&lt;br style=&quot;font-size: 14px;&quot;&gt;判断具体用户" style="text;html=1;strokeColor=none;fillColor=none;align=center;verticalAlign=middle;whiteSpace=wrap;rounded=0;fontFamily=Lucida Console;fontSize=14;" vertex="1" parent="1">
          <mxGeometry x="600" y="550" width="110" height="30" as="geometry" />
        </mxCell>
      </root>
    </mxGraphModel>
  </diagram>
</mxfile>
